<mxfile host="Electron" agent="Mozilla/5.0 (Macintosh; Intel Mac OS X 10_15_7) AppleWebKit/537.36 (KHTML, like Gecko) draw.io/26.0.4 Chrome/128.0.6613.186 Electron/32.2.5 Safari/537.36" version="26.0.4">
  <diagram name="Страница — 1" id="gqWjCBKimB9imq09bjyO">
    <mxGraphModel dx="1080" dy="1958" grid="1" gridSize="10" guides="1" tooltips="1" connect="1" arrows="1" fold="1" page="1" pageScale="1" pageWidth="827" pageHeight="1169" math="0" shadow="0">
      <root>
        <mxCell id="0" />
        <mxCell id="1" parent="0" />
        <mxCell id="gh-8znMGUpCOYyHDODqv-152" value="" style="rounded=1;whiteSpace=wrap;html=1;fillColor=none;" vertex="1" parent="1">
          <mxGeometry x="1260" y="-90" width="590" height="450" as="geometry" />
        </mxCell>
        <mxCell id="gh-8znMGUpCOYyHDODqv-153" value="" style="rounded=1;whiteSpace=wrap;html=1;fillColor=none;" vertex="1" parent="1">
          <mxGeometry x="700" y="20" width="490" height="570" as="geometry" />
        </mxCell>
        <mxCell id="gh-8znMGUpCOYyHDODqv-155" value="" style="rounded=1;whiteSpace=wrap;html=1;fillColor=none;" vertex="1" parent="1">
          <mxGeometry x="200" y="50" width="450" height="480" as="geometry" />
        </mxCell>
        <mxCell id="gh-8znMGUpCOYyHDODqv-157" value="" style="rounded=1;whiteSpace=wrap;html=1;fillColor=none;" vertex="1" parent="1">
          <mxGeometry x="190" y="620" width="440" height="430" as="geometry" />
        </mxCell>
        <mxCell id="gh-8znMGUpCOYyHDODqv-158" value="" style="rounded=1;whiteSpace=wrap;html=1;fillColor=none;" vertex="1" parent="1">
          <mxGeometry x="750" y="720" width="470" height="200" as="geometry" />
        </mxCell>
        <mxCell id="gh-8znMGUpCOYyHDODqv-161" value="" style="rounded=1;whiteSpace=wrap;html=1;fillColor=none;" vertex="1" parent="1">
          <mxGeometry x="1330" y="535" width="410" height="285" as="geometry" />
        </mxCell>
        <mxCell id="gh-8znMGUpCOYyHDODqv-3" value="Обработка заявок от соискателей" style="text;html=1;align=center;verticalAlign=middle;whiteSpace=wrap;rounded=0;" vertex="1" parent="1">
          <mxGeometry x="264" y="60" width="200" height="30" as="geometry" />
        </mxCell>
        <mxCell id="gh-8znMGUpCOYyHDODqv-14" style="edgeStyle=orthogonalEdgeStyle;rounded=0;orthogonalLoop=1;jettySize=auto;html=1;entryX=1;entryY=0.5;entryDx=0;entryDy=0;" edge="1" parent="1" source="gh-8znMGUpCOYyHDODqv-4" target="gh-8znMGUpCOYyHDODqv-10">
          <mxGeometry relative="1" as="geometry" />
        </mxCell>
        <mxCell id="gh-8znMGUpCOYyHDODqv-15" value="has_many" style="edgeLabel;html=1;align=center;verticalAlign=middle;resizable=0;points=[];" vertex="1" connectable="0" parent="gh-8znMGUpCOYyHDODqv-14">
          <mxGeometry x="-0.0667" y="1" relative="1" as="geometry">
            <mxPoint as="offset" />
          </mxGeometry>
        </mxCell>
        <mxCell id="gh-8znMGUpCOYyHDODqv-18" style="edgeStyle=orthogonalEdgeStyle;rounded=0;orthogonalLoop=1;jettySize=auto;html=1;exitX=0.5;exitY=1;exitDx=0;exitDy=0;" edge="1" parent="1" source="gh-8znMGUpCOYyHDODqv-4" target="gh-8znMGUpCOYyHDODqv-16">
          <mxGeometry relative="1" as="geometry" />
        </mxCell>
        <mxCell id="gh-8znMGUpCOYyHDODqv-20" value="has_many" style="edgeLabel;html=1;align=center;verticalAlign=middle;resizable=0;points=[];" vertex="1" connectable="0" parent="gh-8znMGUpCOYyHDODqv-18">
          <mxGeometry x="-0.08" y="1" relative="1" as="geometry">
            <mxPoint as="offset" />
          </mxGeometry>
        </mxCell>
        <mxCell id="gh-8znMGUpCOYyHDODqv-4" value="Applicant" style="swimlane;childLayout=stackLayout;horizontal=1;startSize=50;horizontalStack=0;rounded=1;fontSize=14;fontStyle=0;strokeWidth=2;resizeParent=0;resizeLast=1;shadow=0;dashed=0;align=center;arcSize=4;whiteSpace=wrap;html=1;" vertex="1" collapsed="1" parent="1">
          <mxGeometry x="484" y="270" width="100" height="50" as="geometry">
            <mxRectangle x="150" y="120" width="160" height="120" as="alternateBounds" />
          </mxGeometry>
        </mxCell>
        <mxCell id="gh-8znMGUpCOYyHDODqv-5" value="+Attribute1&#xa;+Attribute2&#xa;+Attribute3" style="align=left;strokeColor=none;fillColor=none;spacingLeft=4;fontSize=12;verticalAlign=top;resizable=0;rotatable=0;part=1;html=1;" vertex="1" parent="gh-8znMGUpCOYyHDODqv-4">
          <mxGeometry y="50" width="160" height="70" as="geometry" />
        </mxCell>
        <mxCell id="gh-8znMGUpCOYyHDODqv-8" style="edgeStyle=orthogonalEdgeStyle;rounded=0;orthogonalLoop=1;jettySize=auto;html=1;" edge="1" parent="1" source="gh-8znMGUpCOYyHDODqv-6" target="gh-8znMGUpCOYyHDODqv-4">
          <mxGeometry relative="1" as="geometry">
            <mxPoint x="334" y="155" as="targetPoint" />
          </mxGeometry>
        </mxCell>
        <mxCell id="gh-8znMGUpCOYyHDODqv-9" value="has_many" style="edgeLabel;html=1;align=center;verticalAlign=middle;resizable=0;points=[];" vertex="1" connectable="0" parent="gh-8znMGUpCOYyHDODqv-8">
          <mxGeometry x="-0.0159" y="-4" relative="1" as="geometry">
            <mxPoint x="-1" y="-1" as="offset" />
          </mxGeometry>
        </mxCell>
        <mxCell id="gh-8znMGUpCOYyHDODqv-109" style="edgeStyle=orthogonalEdgeStyle;rounded=0;orthogonalLoop=1;jettySize=auto;html=1;entryX=1;entryY=0.5;entryDx=0;entryDy=0;" edge="1" parent="1" source="gh-8znMGUpCOYyHDODqv-6" target="gh-8znMGUpCOYyHDODqv-105">
          <mxGeometry relative="1" as="geometry" />
        </mxCell>
        <mxCell id="gh-8znMGUpCOYyHDODqv-110" value="has_many" style="edgeLabel;html=1;align=center;verticalAlign=middle;resizable=0;points=[];" vertex="1" connectable="0" parent="gh-8znMGUpCOYyHDODqv-109">
          <mxGeometry x="-0.0168" relative="1" as="geometry">
            <mxPoint as="offset" />
          </mxGeometry>
        </mxCell>
        <mxCell id="gh-8znMGUpCOYyHDODqv-6" value="Manager" style="swimlane;childLayout=stackLayout;horizontal=1;startSize=50;horizontalStack=0;rounded=1;fontSize=14;fontStyle=0;strokeWidth=2;resizeParent=0;resizeLast=1;shadow=0;dashed=0;align=center;arcSize=4;whiteSpace=wrap;html=1;" vertex="1" collapsed="1" parent="1">
          <mxGeometry x="484" y="120" width="100" height="50" as="geometry">
            <mxRectangle x="364" y="120" width="160" height="120" as="alternateBounds" />
          </mxGeometry>
        </mxCell>
        <mxCell id="gh-8znMGUpCOYyHDODqv-7" value="+Attribute1&#xa;+Attribute2&#xa;+Attribute3" style="align=left;strokeColor=none;fillColor=none;spacingLeft=4;fontSize=12;verticalAlign=top;resizable=0;rotatable=0;part=1;html=1;" vertex="1" parent="gh-8znMGUpCOYyHDODqv-6">
          <mxGeometry y="50" width="160" height="70" as="geometry" />
        </mxCell>
        <mxCell id="gh-8znMGUpCOYyHDODqv-10" value="Test" style="swimlane;childLayout=stackLayout;horizontal=1;startSize=50;horizontalStack=0;rounded=1;fontSize=14;fontStyle=0;strokeWidth=2;resizeParent=0;resizeLast=1;shadow=0;dashed=0;align=center;arcSize=4;whiteSpace=wrap;html=1;" vertex="1" collapsed="1" parent="1">
          <mxGeometry x="259" y="270" width="70" height="50" as="geometry">
            <mxRectangle x="350" y="280" width="160" height="120" as="alternateBounds" />
          </mxGeometry>
        </mxCell>
        <mxCell id="gh-8znMGUpCOYyHDODqv-11" value="+Attribute1&#xa;+Attribute2&#xa;+Attribute3" style="align=left;strokeColor=none;fillColor=none;spacingLeft=4;fontSize=12;verticalAlign=top;resizable=0;rotatable=0;part=1;html=1;" vertex="1" parent="gh-8znMGUpCOYyHDODqv-10">
          <mxGeometry y="50" width="160" height="70" as="geometry" />
        </mxCell>
        <mxCell id="gh-8znMGUpCOYyHDODqv-16" value="Test result" style="swimlane;childLayout=stackLayout;horizontal=1;startSize=50;horizontalStack=0;rounded=1;fontSize=14;fontStyle=0;strokeWidth=2;resizeParent=0;resizeLast=1;shadow=0;dashed=0;align=center;arcSize=4;whiteSpace=wrap;html=1;" vertex="1" collapsed="1" parent="1">
          <mxGeometry x="484" y="410" width="100" height="50" as="geometry">
            <mxRectangle x="350" y="280" width="160" height="120" as="alternateBounds" />
          </mxGeometry>
        </mxCell>
        <mxCell id="gh-8znMGUpCOYyHDODqv-17" value="+Attribute1&#xa;+Attribute2&#xa;+Attribute3" style="align=left;strokeColor=none;fillColor=none;spacingLeft=4;fontSize=12;verticalAlign=top;resizable=0;rotatable=0;part=1;html=1;" vertex="1" parent="gh-8znMGUpCOYyHDODqv-16">
          <mxGeometry y="50" width="160" height="70" as="geometry" />
        </mxCell>
        <mxCell id="gh-8znMGUpCOYyHDODqv-21" value="Обработка заказов" style="text;html=1;align=center;verticalAlign=middle;whiteSpace=wrap;rounded=0;" vertex="1" parent="1">
          <mxGeometry x="760" y="40" width="200" height="30" as="geometry" />
        </mxCell>
        <mxCell id="gh-8znMGUpCOYyHDODqv-42" style="edgeStyle=orthogonalEdgeStyle;rounded=0;orthogonalLoop=1;jettySize=auto;html=1;exitX=0.5;exitY=1;exitDx=0;exitDy=0;" edge="1" parent="1" source="gh-8znMGUpCOYyHDODqv-28" target="gh-8znMGUpCOYyHDODqv-39">
          <mxGeometry relative="1" as="geometry">
            <Array as="points">
              <mxPoint x="1020" y="220" />
              <mxPoint x="1020" y="220" />
            </Array>
          </mxGeometry>
        </mxCell>
        <mxCell id="gh-8znMGUpCOYyHDODqv-43" value="has_many" style="edgeLabel;html=1;align=center;verticalAlign=middle;resizable=0;points=[];" vertex="1" connectable="0" parent="gh-8znMGUpCOYyHDODqv-42">
          <mxGeometry x="-0.0865" y="-2" relative="1" as="geometry">
            <mxPoint as="offset" />
          </mxGeometry>
        </mxCell>
        <mxCell id="gh-8znMGUpCOYyHDODqv-28" value="Client" style="swimlane;childLayout=stackLayout;horizontal=1;startSize=50;horizontalStack=0;rounded=1;fontSize=14;fontStyle=0;strokeWidth=2;resizeParent=0;resizeLast=1;shadow=0;dashed=0;align=center;arcSize=4;whiteSpace=wrap;html=1;" vertex="1" parent="1">
          <mxGeometry x="940" y="90" width="160" height="120" as="geometry">
            <mxRectangle x="940" y="90" width="80" height="50" as="alternateBounds" />
          </mxGeometry>
        </mxCell>
        <mxCell id="gh-8znMGUpCOYyHDODqv-29" value="+client_discount" style="align=left;strokeColor=none;fillColor=none;spacingLeft=4;fontSize=12;verticalAlign=top;resizable=0;rotatable=0;part=1;html=1;" vertex="1" parent="gh-8znMGUpCOYyHDODqv-28">
          <mxGeometry y="50" width="160" height="70" as="geometry" />
        </mxCell>
        <mxCell id="gh-8znMGUpCOYyHDODqv-34" style="edgeStyle=orthogonalEdgeStyle;rounded=0;orthogonalLoop=1;jettySize=auto;html=1;entryX=0;entryY=0.5;entryDx=0;entryDy=0;" edge="1" parent="1" source="gh-8znMGUpCOYyHDODqv-31" target="gh-8znMGUpCOYyHDODqv-28">
          <mxGeometry relative="1" as="geometry" />
        </mxCell>
        <mxCell id="gh-8znMGUpCOYyHDODqv-35" value="has_many" style="edgeLabel;html=1;align=center;verticalAlign=middle;resizable=0;points=[];" vertex="1" connectable="0" parent="gh-8znMGUpCOYyHDODqv-34">
          <mxGeometry x="0.0182" relative="1" as="geometry">
            <mxPoint as="offset" />
          </mxGeometry>
        </mxCell>
        <mxCell id="gh-8znMGUpCOYyHDODqv-44" style="edgeStyle=orthogonalEdgeStyle;rounded=0;orthogonalLoop=1;jettySize=auto;html=1;entryX=0.5;entryY=0;entryDx=0;entryDy=0;exitX=0.5;exitY=1;exitDx=0;exitDy=0;" edge="1" parent="1" source="gh-8znMGUpCOYyHDODqv-31" target="gh-8znMGUpCOYyHDODqv-36">
          <mxGeometry relative="1" as="geometry" />
        </mxCell>
        <mxCell id="gh-8znMGUpCOYyHDODqv-45" value="has_many" style="edgeLabel;html=1;align=center;verticalAlign=middle;resizable=0;points=[];" vertex="1" connectable="0" parent="gh-8znMGUpCOYyHDODqv-44">
          <mxGeometry x="0.2491" y="2" relative="1" as="geometry">
            <mxPoint as="offset" />
          </mxGeometry>
        </mxCell>
        <mxCell id="gh-8znMGUpCOYyHDODqv-31" value="Manager" style="swimlane;childLayout=stackLayout;horizontal=1;startSize=50;horizontalStack=0;rounded=1;fontSize=14;fontStyle=0;strokeWidth=2;resizeParent=0;resizeLast=1;shadow=0;dashed=0;align=center;arcSize=4;whiteSpace=wrap;html=1;" vertex="1" collapsed="1" parent="1">
          <mxGeometry x="735" y="125" width="100" height="50" as="geometry">
            <mxRectangle x="520" y="30" width="160" height="120" as="alternateBounds" />
          </mxGeometry>
        </mxCell>
        <mxCell id="gh-8znMGUpCOYyHDODqv-32" value="+Attribute1&#xa;+Attribute2&#xa;+Attribute3" style="align=left;strokeColor=none;fillColor=none;spacingLeft=4;fontSize=12;verticalAlign=top;resizable=0;rotatable=0;part=1;html=1;" vertex="1" parent="gh-8znMGUpCOYyHDODqv-31">
          <mxGeometry y="50" width="160" height="70" as="geometry" />
        </mxCell>
        <mxCell id="gh-8znMGUpCOYyHDODqv-46" style="edgeStyle=orthogonalEdgeStyle;rounded=0;orthogonalLoop=1;jettySize=auto;html=1;entryX=0;entryY=0.25;entryDx=0;entryDy=0;" edge="1" parent="1" source="gh-8znMGUpCOYyHDODqv-36" target="gh-8znMGUpCOYyHDODqv-39">
          <mxGeometry relative="1" as="geometry" />
        </mxCell>
        <mxCell id="gh-8znMGUpCOYyHDODqv-47" value="has_many" style="edgeLabel;html=1;align=center;verticalAlign=middle;resizable=0;points=[];" vertex="1" connectable="0" parent="gh-8znMGUpCOYyHDODqv-46">
          <mxGeometry x="-0.0057" y="1" relative="1" as="geometry">
            <mxPoint as="offset" />
          </mxGeometry>
        </mxCell>
        <mxCell id="gh-8znMGUpCOYyHDODqv-36" value="Worker" style="swimlane;childLayout=stackLayout;horizontal=1;startSize=50;horizontalStack=0;rounded=1;fontSize=14;fontStyle=0;strokeWidth=2;resizeParent=0;resizeLast=1;shadow=0;dashed=0;align=center;arcSize=4;whiteSpace=wrap;html=1;" vertex="1" collapsed="1" parent="1">
          <mxGeometry x="745" y="300" width="80" height="50" as="geometry">
            <mxRectangle x="520" y="30" width="160" height="120" as="alternateBounds" />
          </mxGeometry>
        </mxCell>
        <mxCell id="gh-8znMGUpCOYyHDODqv-37" value="+Attribute1&#xa;+Attribute2&#xa;+Attribute3" style="align=left;strokeColor=none;fillColor=none;spacingLeft=4;fontSize=12;verticalAlign=top;resizable=0;rotatable=0;part=1;html=1;" vertex="1" parent="gh-8znMGUpCOYyHDODqv-36">
          <mxGeometry y="50" width="160" height="70" as="geometry" />
        </mxCell>
        <mxCell id="gh-8znMGUpCOYyHDODqv-39" value="Task" style="swimlane;childLayout=stackLayout;horizontal=1;startSize=50;horizontalStack=0;rounded=1;fontSize=14;fontStyle=0;strokeWidth=2;resizeParent=0;resizeLast=1;shadow=0;dashed=0;align=center;arcSize=4;whiteSpace=wrap;html=1;" vertex="1" parent="1">
          <mxGeometry x="940" y="300" width="160" height="120" as="geometry">
            <mxRectangle x="940" y="300" width="70" height="50" as="alternateBounds" />
          </mxGeometry>
        </mxCell>
        <mxCell id="gh-8znMGUpCOYyHDODqv-40" value="+desc&lt;br&gt;+price&lt;br&gt;+photo_url" style="align=left;strokeColor=none;fillColor=none;spacingLeft=4;fontSize=12;verticalAlign=top;resizable=0;rotatable=0;part=1;html=1;" vertex="1" parent="gh-8znMGUpCOYyHDODqv-39">
          <mxGeometry y="50" width="160" height="70" as="geometry" />
        </mxCell>
        <mxCell id="gh-8znMGUpCOYyHDODqv-48" value="Расходники" style="text;html=1;align=center;verticalAlign=middle;resizable=0;points=[];autosize=1;strokeColor=none;fillColor=none;" vertex="1" parent="1">
          <mxGeometry x="1515" y="-82" width="90" height="30" as="geometry" />
        </mxCell>
        <mxCell id="gh-8znMGUpCOYyHDODqv-49" value="Consumables order" style="swimlane;childLayout=stackLayout;horizontal=1;startSize=50;horizontalStack=0;rounded=1;fontSize=14;fontStyle=0;strokeWidth=2;resizeParent=0;resizeLast=1;shadow=0;dashed=0;align=center;arcSize=4;whiteSpace=wrap;html=1;" vertex="1" collapsed="1" parent="1">
          <mxGeometry x="1485" y="110" width="120" height="50" as="geometry">
            <mxRectangle x="1280" y="120" width="160" height="120" as="alternateBounds" />
          </mxGeometry>
        </mxCell>
        <mxCell id="gh-8znMGUpCOYyHDODqv-50" value="+Attribute1&#xa;+Attribute2&#xa;+Attribute3" style="align=left;strokeColor=none;fillColor=none;spacingLeft=4;fontSize=12;verticalAlign=top;resizable=0;rotatable=0;part=1;html=1;" vertex="1" parent="gh-8znMGUpCOYyHDODqv-49">
          <mxGeometry y="50" width="160" height="70" as="geometry" />
        </mxCell>
        <mxCell id="gh-8znMGUpCOYyHDODqv-53" style="edgeStyle=orthogonalEdgeStyle;rounded=0;orthogonalLoop=1;jettySize=auto;html=1;entryX=1;entryY=0.5;entryDx=0;entryDy=0;" edge="1" parent="1" source="gh-8znMGUpCOYyHDODqv-51" target="gh-8znMGUpCOYyHDODqv-49">
          <mxGeometry relative="1" as="geometry">
            <mxPoint x="1670" y="135" as="targetPoint" />
          </mxGeometry>
        </mxCell>
        <mxCell id="gh-8znMGUpCOYyHDODqv-54" value="many_to_many" style="edgeLabel;html=1;align=center;verticalAlign=middle;resizable=0;points=[];" vertex="1" connectable="0" parent="gh-8znMGUpCOYyHDODqv-53">
          <mxGeometry x="-0.0108" relative="1" as="geometry">
            <mxPoint y="-1" as="offset" />
          </mxGeometry>
        </mxCell>
        <mxCell id="gh-8znMGUpCOYyHDODqv-51" value="Consumable" style="swimlane;childLayout=stackLayout;horizontal=1;startSize=50;horizontalStack=0;rounded=1;fontSize=14;fontStyle=0;strokeWidth=2;resizeParent=0;resizeLast=1;shadow=0;dashed=0;align=center;arcSize=4;whiteSpace=wrap;html=1;" vertex="1" collapsed="1" parent="1">
          <mxGeometry x="1710" y="110" width="80" height="50" as="geometry">
            <mxRectangle x="1500" y="110" width="160" height="120" as="alternateBounds" />
          </mxGeometry>
        </mxCell>
        <mxCell id="gh-8znMGUpCOYyHDODqv-52" value="+Attribute1&#xa;+Attribute2&#xa;+Attribute3" style="align=left;strokeColor=none;fillColor=none;spacingLeft=4;fontSize=12;verticalAlign=top;resizable=0;rotatable=0;part=1;html=1;" vertex="1" parent="gh-8znMGUpCOYyHDODqv-51">
          <mxGeometry y="50" width="160" height="70" as="geometry" />
        </mxCell>
        <mxCell id="gh-8znMGUpCOYyHDODqv-72" style="edgeStyle=orthogonalEdgeStyle;rounded=0;orthogonalLoop=1;jettySize=auto;html=1;entryX=0.5;entryY=1;entryDx=0;entryDy=0;" edge="1" parent="1" source="gh-8znMGUpCOYyHDODqv-55" target="gh-8znMGUpCOYyHDODqv-49">
          <mxGeometry relative="1" as="geometry" />
        </mxCell>
        <mxCell id="gh-8znMGUpCOYyHDODqv-73" value="has_many" style="edgeLabel;html=1;align=center;verticalAlign=middle;resizable=0;points=[];" vertex="1" connectable="0" parent="gh-8znMGUpCOYyHDODqv-72">
          <mxGeometry x="0.3185" y="2" relative="1" as="geometry">
            <mxPoint as="offset" />
          </mxGeometry>
        </mxCell>
        <mxCell id="gh-8znMGUpCOYyHDODqv-55" value="Order status" style="swimlane;childLayout=stackLayout;horizontal=1;startSize=50;horizontalStack=0;rounded=1;fontSize=14;fontStyle=0;strokeWidth=2;resizeParent=0;resizeLast=1;shadow=0;dashed=0;align=center;arcSize=4;whiteSpace=wrap;html=1;" vertex="1" collapsed="1" parent="1">
          <mxGeometry x="1505" y="230" width="80" height="50" as="geometry">
            <mxRectangle x="1560" y="260" width="160" height="120" as="alternateBounds" />
          </mxGeometry>
        </mxCell>
        <mxCell id="gh-8znMGUpCOYyHDODqv-56" value="+Attribute1&#xa;+Attribute2&#xa;+Attribute3" style="align=left;strokeColor=none;fillColor=none;spacingLeft=4;fontSize=12;verticalAlign=top;resizable=0;rotatable=0;part=1;html=1;" vertex="1" parent="gh-8znMGUpCOYyHDODqv-55">
          <mxGeometry y="50" width="160" height="70" as="geometry" />
        </mxCell>
        <mxCell id="gh-8znMGUpCOYyHDODqv-64" style="edgeStyle=orthogonalEdgeStyle;rounded=0;orthogonalLoop=1;jettySize=auto;html=1;entryX=0.5;entryY=0;entryDx=0;entryDy=0;exitX=0.5;exitY=1;exitDx=0;exitDy=0;" edge="1" parent="1" source="gh-8znMGUpCOYyHDODqv-84" target="gh-8znMGUpCOYyHDODqv-49">
          <mxGeometry relative="1" as="geometry">
            <mxPoint x="1545" y="40" as="sourcePoint" />
          </mxGeometry>
        </mxCell>
        <mxCell id="gh-8znMGUpCOYyHDODqv-66" value="has_many" style="edgeLabel;html=1;align=center;verticalAlign=middle;resizable=0;points=[];" vertex="1" connectable="0" parent="gh-8znMGUpCOYyHDODqv-64">
          <mxGeometry x="-0.0095" y="2" relative="1" as="geometry">
            <mxPoint as="offset" />
          </mxGeometry>
        </mxCell>
        <mxCell id="gh-8znMGUpCOYyHDODqv-74" style="edgeStyle=orthogonalEdgeStyle;rounded=0;orthogonalLoop=1;jettySize=auto;html=1;entryX=0.5;entryY=1;entryDx=0;entryDy=0;" edge="1" parent="1" source="gh-8znMGUpCOYyHDODqv-68" target="gh-8znMGUpCOYyHDODqv-40">
          <mxGeometry relative="1" as="geometry" />
        </mxCell>
        <mxCell id="gh-8znMGUpCOYyHDODqv-75" value="has_many" style="edgeLabel;html=1;align=center;verticalAlign=middle;resizable=0;points=[];" vertex="1" connectable="0" parent="gh-8znMGUpCOYyHDODqv-74">
          <mxGeometry x="-0.0143" y="-2" relative="1" as="geometry">
            <mxPoint as="offset" />
          </mxGeometry>
        </mxCell>
        <mxCell id="gh-8znMGUpCOYyHDODqv-68" value="Task status" style="swimlane;childLayout=stackLayout;horizontal=1;startSize=50;horizontalStack=0;rounded=1;fontSize=14;fontStyle=0;strokeWidth=2;resizeParent=0;resizeLast=1;shadow=0;dashed=0;align=center;arcSize=4;whiteSpace=wrap;html=1;" vertex="1" collapsed="1" parent="1">
          <mxGeometry x="980" y="500" width="80" height="50" as="geometry">
            <mxRectangle x="1030" y="200" width="160" height="120" as="alternateBounds" />
          </mxGeometry>
        </mxCell>
        <mxCell id="gh-8znMGUpCOYyHDODqv-69" value="+Attribute1&#xa;+Attribute2&#xa;+Attribute3" style="align=left;strokeColor=none;fillColor=none;spacingLeft=4;fontSize=12;verticalAlign=top;resizable=0;rotatable=0;part=1;html=1;" vertex="1" parent="gh-8znMGUpCOYyHDODqv-68">
          <mxGeometry y="50" width="160" height="70" as="geometry" />
        </mxCell>
        <mxCell id="gh-8znMGUpCOYyHDODqv-76" value="Оценка качества" style="text;html=1;align=center;verticalAlign=middle;resizable=0;points=[];autosize=1;strokeColor=none;fillColor=none;" vertex="1" parent="1">
          <mxGeometry x="1440" y="550" width="120" height="30" as="geometry" />
        </mxCell>
        <mxCell id="gh-8znMGUpCOYyHDODqv-91" style="edgeStyle=orthogonalEdgeStyle;rounded=0;orthogonalLoop=1;jettySize=auto;html=1;entryX=0;entryY=0.5;entryDx=0;entryDy=0;" edge="1" parent="1" source="gh-8znMGUpCOYyHDODqv-78" target="gh-8znMGUpCOYyHDODqv-89">
          <mxGeometry relative="1" as="geometry" />
        </mxCell>
        <mxCell id="gh-8znMGUpCOYyHDODqv-92" value="has_many" style="edgeLabel;html=1;align=center;verticalAlign=middle;resizable=0;points=[];" vertex="1" connectable="0" parent="gh-8znMGUpCOYyHDODqv-91">
          <mxGeometry x="0.0023" relative="1" as="geometry">
            <mxPoint as="offset" />
          </mxGeometry>
        </mxCell>
        <mxCell id="gh-8znMGUpCOYyHDODqv-78" value="Quality manager" style="swimlane;childLayout=stackLayout;horizontal=1;startSize=50;horizontalStack=0;rounded=1;fontSize=14;fontStyle=0;strokeWidth=2;resizeParent=0;resizeLast=1;shadow=0;dashed=0;align=center;arcSize=4;whiteSpace=wrap;html=1;" vertex="1" collapsed="1" parent="1">
          <mxGeometry x="1400" y="612" width="80" height="50" as="geometry">
            <mxRectangle x="1830" y="-10" width="160" height="120" as="alternateBounds" />
          </mxGeometry>
        </mxCell>
        <mxCell id="gh-8znMGUpCOYyHDODqv-79" value="+Attribute1&#xa;+Attribute2&#xa;+Attribute3" style="align=left;strokeColor=none;fillColor=none;spacingLeft=4;fontSize=12;verticalAlign=top;resizable=0;rotatable=0;part=1;html=1;" vertex="1" parent="gh-8znMGUpCOYyHDODqv-78">
          <mxGeometry y="50" width="160" height="70" as="geometry" />
        </mxCell>
        <mxCell id="gh-8znMGUpCOYyHDODqv-84" value="Consumables&lt;div&gt;manager&lt;/div&gt;" style="swimlane;childLayout=stackLayout;horizontal=1;startSize=50;horizontalStack=0;rounded=1;fontSize=14;fontStyle=0;strokeWidth=2;resizeParent=0;resizeLast=1;shadow=0;dashed=0;align=center;arcSize=4;whiteSpace=wrap;html=1;" vertex="1" collapsed="1" parent="1">
          <mxGeometry x="1480" y="-10" width="130" height="50" as="geometry">
            <mxRectangle x="1360" y="-370" width="160" height="120" as="alternateBounds" />
          </mxGeometry>
        </mxCell>
        <mxCell id="gh-8znMGUpCOYyHDODqv-85" value="+Attribute1&#xa;+Attribute2&#xa;+Attribute3" style="align=left;strokeColor=none;fillColor=none;spacingLeft=4;fontSize=12;verticalAlign=top;resizable=0;rotatable=0;part=1;html=1;" vertex="1" parent="gh-8znMGUpCOYyHDODqv-84">
          <mxGeometry y="50" width="160" height="70" as="geometry" />
        </mxCell>
        <mxCell id="gh-8znMGUpCOYyHDODqv-98" style="edgeStyle=orthogonalEdgeStyle;rounded=0;orthogonalLoop=1;jettySize=auto;html=1;entryX=1;entryY=0.5;entryDx=0;entryDy=0;exitX=0.5;exitY=1;exitDx=0;exitDy=0;" edge="1" parent="1" source="gh-8znMGUpCOYyHDODqv-89" target="gh-8znMGUpCOYyHDODqv-95">
          <mxGeometry relative="1" as="geometry" />
        </mxCell>
        <mxCell id="gh-8znMGUpCOYyHDODqv-99" value="has_many" style="edgeLabel;html=1;align=center;verticalAlign=middle;resizable=0;points=[];" vertex="1" connectable="0" parent="gh-8znMGUpCOYyHDODqv-98">
          <mxGeometry x="-0.0046" y="-4" relative="1" as="geometry">
            <mxPoint as="offset" />
          </mxGeometry>
        </mxCell>
        <mxCell id="gh-8znMGUpCOYyHDODqv-89" value="Quality&lt;div&gt;assessment&lt;/div&gt;" style="swimlane;childLayout=stackLayout;horizontal=1;startSize=50;horizontalStack=0;rounded=1;fontSize=14;fontStyle=0;strokeWidth=2;resizeParent=0;resizeLast=1;shadow=0;dashed=0;align=center;arcSize=4;whiteSpace=wrap;html=1;" vertex="1" collapsed="1" parent="1">
          <mxGeometry x="1570" y="612" width="120" height="50" as="geometry">
            <mxRectangle x="1960" y="50" width="160" height="120" as="alternateBounds" />
          </mxGeometry>
        </mxCell>
        <mxCell id="gh-8znMGUpCOYyHDODqv-90" value="+Attribute1&#xa;+Attribute2&#xa;+Attribute3" style="align=left;strokeColor=none;fillColor=none;spacingLeft=4;fontSize=12;verticalAlign=top;resizable=0;rotatable=0;part=1;html=1;" vertex="1" parent="gh-8znMGUpCOYyHDODqv-89">
          <mxGeometry y="50" width="160" height="70" as="geometry" />
        </mxCell>
        <mxCell id="gh-8znMGUpCOYyHDODqv-95" value="Task" style="swimlane;childLayout=stackLayout;horizontal=1;startSize=50;horizontalStack=0;rounded=1;fontSize=14;fontStyle=0;strokeWidth=2;resizeParent=0;resizeLast=1;shadow=0;dashed=0;align=center;arcSize=4;whiteSpace=wrap;html=1;strokeColor=#7EA6E0;" vertex="1" collapsed="1" parent="1">
          <mxGeometry x="1400" y="720" width="70" height="50" as="geometry">
            <mxRectangle x="1840" y="180" width="160" height="120" as="alternateBounds" />
          </mxGeometry>
        </mxCell>
        <mxCell id="gh-8znMGUpCOYyHDODqv-96" value="+Attribute1&#xa;+Attribute2&#xa;+Attribute3" style="align=left;strokeColor=none;fillColor=none;spacingLeft=4;fontSize=12;verticalAlign=top;resizable=0;rotatable=0;part=1;html=1;" vertex="1" parent="gh-8znMGUpCOYyHDODqv-95">
          <mxGeometry y="50" width="160" height="70" as="geometry" />
        </mxCell>
        <mxCell id="gh-8znMGUpCOYyHDODqv-97" style="edgeStyle=orthogonalEdgeStyle;rounded=0;orthogonalLoop=1;jettySize=auto;html=1;dashed=1;dashPattern=12 12;strokeColor=#6c8ebf;strokeWidth=2;align=center;verticalAlign=middle;fontFamily=Helvetica;fontSize=11;fontColor=default;labelBackgroundColor=default;endArrow=classic;fillColor=#dae8fc;exitX=1;exitY=0.25;exitDx=0;exitDy=0;entryX=0;entryY=0.5;entryDx=0;entryDy=0;" edge="1" parent="1" source="gh-8znMGUpCOYyHDODqv-40" target="gh-8znMGUpCOYyHDODqv-95">
          <mxGeometry relative="1" as="geometry">
            <mxPoint x="1340" y="870" as="targetPoint" />
            <Array as="points">
              <mxPoint x="1250" y="367" />
              <mxPoint x="1250" y="745" />
            </Array>
          </mxGeometry>
        </mxCell>
        <mxCell id="gh-8znMGUpCOYyHDODqv-102" style="edgeStyle=orthogonalEdgeStyle;rounded=0;orthogonalLoop=1;jettySize=auto;html=1;entryX=0;entryY=0.5;entryDx=0;entryDy=0;" edge="1" parent="1" source="gh-8znMGUpCOYyHDODqv-100" target="gh-8znMGUpCOYyHDODqv-49">
          <mxGeometry relative="1" as="geometry" />
        </mxCell>
        <mxCell id="gh-8znMGUpCOYyHDODqv-103" value="has_one" style="edgeLabel;html=1;align=center;verticalAlign=middle;resizable=0;points=[];" vertex="1" connectable="0" parent="gh-8znMGUpCOYyHDODqv-102">
          <mxGeometry x="-0.0172" y="-3" relative="1" as="geometry">
            <mxPoint as="offset" />
          </mxGeometry>
        </mxCell>
        <mxCell id="gh-8znMGUpCOYyHDODqv-100" value="Task" style="swimlane;childLayout=stackLayout;horizontal=1;startSize=50;horizontalStack=0;rounded=1;fontSize=14;fontStyle=0;strokeWidth=2;resizeParent=0;resizeLast=1;shadow=0;dashed=0;align=center;arcSize=4;whiteSpace=wrap;html=1;strokeColor=#7EA6E0;" vertex="1" collapsed="1" parent="1">
          <mxGeometry x="1320" y="110" width="70" height="50" as="geometry">
            <mxRectangle x="1250" y="25" width="160" height="120" as="alternateBounds" />
          </mxGeometry>
        </mxCell>
        <mxCell id="gh-8znMGUpCOYyHDODqv-101" value="+Attribute1&#xa;+Attribute2&#xa;+Attribute3" style="align=left;strokeColor=none;fillColor=none;spacingLeft=4;fontSize=12;verticalAlign=top;resizable=0;rotatable=0;part=1;html=1;" vertex="1" parent="gh-8znMGUpCOYyHDODqv-100">
          <mxGeometry y="50" width="160" height="70" as="geometry" />
        </mxCell>
        <mxCell id="gh-8znMGUpCOYyHDODqv-104" style="edgeStyle=orthogonalEdgeStyle;rounded=0;orthogonalLoop=1;jettySize=auto;html=1;entryX=0;entryY=0.5;entryDx=0;entryDy=0;dashed=1;dashPattern=12 12;strokeColor=#6c8ebf;strokeWidth=2;align=center;verticalAlign=middle;fontFamily=Helvetica;fontSize=11;fontColor=default;labelBackgroundColor=default;endArrow=classic;fillColor=#dae8fc;exitX=1;exitY=0.25;exitDx=0;exitDy=0;" edge="1" parent="1" source="gh-8znMGUpCOYyHDODqv-39" target="gh-8znMGUpCOYyHDODqv-100">
          <mxGeometry relative="1" as="geometry" />
        </mxCell>
        <mxCell id="gh-8znMGUpCOYyHDODqv-107" style="edgeStyle=orthogonalEdgeStyle;rounded=0;orthogonalLoop=1;jettySize=auto;html=1;entryX=0.5;entryY=0;entryDx=0;entryDy=0;" edge="1" parent="1" source="gh-8znMGUpCOYyHDODqv-105" target="gh-8znMGUpCOYyHDODqv-10">
          <mxGeometry relative="1" as="geometry" />
        </mxCell>
        <mxCell id="gh-8znMGUpCOYyHDODqv-108" value="has_many" style="edgeLabel;html=1;align=center;verticalAlign=middle;resizable=0;points=[];" vertex="1" connectable="0" parent="gh-8znMGUpCOYyHDODqv-107">
          <mxGeometry x="-0.0261" y="1" relative="1" as="geometry">
            <mxPoint as="offset" />
          </mxGeometry>
        </mxCell>
        <mxCell id="gh-8znMGUpCOYyHDODqv-105" value="Job&lt;div&gt;vacancy&lt;/div&gt;" style="swimlane;childLayout=stackLayout;horizontal=1;startSize=50;horizontalStack=0;rounded=1;fontSize=14;fontStyle=0;strokeWidth=2;resizeParent=0;resizeLast=1;shadow=0;dashed=0;align=center;arcSize=4;whiteSpace=wrap;html=1;" vertex="1" collapsed="1" parent="1">
          <mxGeometry x="244" y="120" width="100" height="50" as="geometry">
            <mxRectangle x="310" y="70" width="160" height="120" as="alternateBounds" />
          </mxGeometry>
        </mxCell>
        <mxCell id="gh-8znMGUpCOYyHDODqv-106" value="+Attribute1&#xa;+Attribute2&#xa;+Attribute3" style="align=left;strokeColor=none;fillColor=none;spacingLeft=4;fontSize=12;verticalAlign=top;resizable=0;rotatable=0;part=1;html=1;" vertex="1" parent="gh-8znMGUpCOYyHDODqv-105">
          <mxGeometry y="50" width="160" height="70" as="geometry" />
        </mxCell>
        <mxCell id="gh-8znMGUpCOYyHDODqv-111" value="Обработка платежей" style="text;html=1;align=center;verticalAlign=middle;resizable=0;points=[];autosize=1;strokeColor=none;fillColor=none;" vertex="1" parent="1">
          <mxGeometry x="344" y="640" width="140" height="30" as="geometry" />
        </mxCell>
        <mxCell id="gh-8znMGUpCOYyHDODqv-127" style="edgeStyle=orthogonalEdgeStyle;rounded=0;orthogonalLoop=1;jettySize=auto;html=1;entryX=0.5;entryY=0;entryDx=0;entryDy=0;" edge="1" parent="1" source="gh-8znMGUpCOYyHDODqv-115" target="gh-8znMGUpCOYyHDODqv-125">
          <mxGeometry relative="1" as="geometry" />
        </mxCell>
        <mxCell id="gh-8znMGUpCOYyHDODqv-128" value="has_many" style="edgeLabel;html=1;align=center;verticalAlign=middle;resizable=0;points=[];" vertex="1" connectable="0" parent="gh-8znMGUpCOYyHDODqv-127">
          <mxGeometry x="-0.0804" relative="1" as="geometry">
            <mxPoint as="offset" />
          </mxGeometry>
        </mxCell>
        <mxCell id="gh-8znMGUpCOYyHDODqv-115" value="Client" style="swimlane;childLayout=stackLayout;horizontal=1;startSize=50;horizontalStack=0;rounded=1;fontSize=14;fontStyle=0;strokeWidth=2;resizeParent=0;resizeLast=1;shadow=0;dashed=0;align=center;arcSize=4;whiteSpace=wrap;html=1;" vertex="1" collapsed="1" parent="1">
          <mxGeometry x="474" y="690" width="80" height="50" as="geometry">
            <mxRectangle x="500" y="-20" width="160" height="120" as="alternateBounds" />
          </mxGeometry>
        </mxCell>
        <mxCell id="gh-8znMGUpCOYyHDODqv-116" value="+Attribute1&#xa;+Attribute2&#xa;+Attribute3" style="align=left;strokeColor=none;fillColor=none;spacingLeft=4;fontSize=12;verticalAlign=top;resizable=0;rotatable=0;part=1;html=1;" vertex="1" parent="gh-8znMGUpCOYyHDODqv-115">
          <mxGeometry y="50" width="160" height="70" as="geometry" />
        </mxCell>
        <mxCell id="gh-8znMGUpCOYyHDODqv-123" style="edgeStyle=orthogonalEdgeStyle;rounded=0;orthogonalLoop=1;jettySize=auto;html=1;entryX=0.5;entryY=0;entryDx=0;entryDy=0;" edge="1" parent="1" source="gh-8znMGUpCOYyHDODqv-117" target="gh-8znMGUpCOYyHDODqv-121">
          <mxGeometry relative="1" as="geometry" />
        </mxCell>
        <mxCell id="gh-8znMGUpCOYyHDODqv-124" value="has_many" style="edgeLabel;html=1;align=center;verticalAlign=middle;resizable=0;points=[];" vertex="1" connectable="0" parent="gh-8znMGUpCOYyHDODqv-123">
          <mxGeometry x="-0.0744" y="-1" relative="1" as="geometry">
            <mxPoint as="offset" />
          </mxGeometry>
        </mxCell>
        <mxCell id="gh-8znMGUpCOYyHDODqv-117" value="Worker" style="swimlane;childLayout=stackLayout;horizontal=1;startSize=50;horizontalStack=0;rounded=1;fontSize=14;fontStyle=0;strokeWidth=2;resizeParent=0;resizeLast=1;shadow=0;dashed=0;align=center;arcSize=4;whiteSpace=wrap;html=1;" vertex="1" collapsed="1" parent="1">
          <mxGeometry x="278" y="690" width="80" height="50" as="geometry">
            <mxRectangle x="480" y="-60" width="160" height="120" as="alternateBounds" />
          </mxGeometry>
        </mxCell>
        <mxCell id="gh-8znMGUpCOYyHDODqv-118" value="+Attribute1&#xa;+Attribute2&#xa;+Attribute3" style="align=left;strokeColor=none;fillColor=none;spacingLeft=4;fontSize=12;verticalAlign=top;resizable=0;rotatable=0;part=1;html=1;" vertex="1" parent="gh-8znMGUpCOYyHDODqv-117">
          <mxGeometry y="50" width="160" height="70" as="geometry" />
        </mxCell>
        <mxCell id="gh-8znMGUpCOYyHDODqv-121" value="Worker invoice" style="swimlane;childLayout=stackLayout;horizontal=1;startSize=50;horizontalStack=0;rounded=1;fontSize=14;fontStyle=0;strokeWidth=2;resizeParent=0;resizeLast=1;shadow=0;dashed=0;align=center;arcSize=4;whiteSpace=wrap;html=1;" vertex="1" collapsed="1" parent="1">
          <mxGeometry x="274" y="820" width="80" height="50" as="geometry">
            <mxRectangle x="480" y="600" width="160" height="120" as="alternateBounds" />
          </mxGeometry>
        </mxCell>
        <mxCell id="gh-8znMGUpCOYyHDODqv-122" value="+Attribute1&#xa;+Attribute2&#xa;+Attribute3" style="align=left;strokeColor=none;fillColor=none;spacingLeft=4;fontSize=12;verticalAlign=top;resizable=0;rotatable=0;part=1;html=1;" vertex="1" parent="gh-8znMGUpCOYyHDODqv-121">
          <mxGeometry y="50" width="160" height="70" as="geometry" />
        </mxCell>
        <mxCell id="gh-8znMGUpCOYyHDODqv-125" value="Client&lt;div&gt;invoice&lt;/div&gt;" style="swimlane;childLayout=stackLayout;horizontal=1;startSize=50;horizontalStack=0;rounded=1;fontSize=14;fontStyle=0;strokeWidth=2;resizeParent=0;resizeLast=1;shadow=0;dashed=0;align=center;arcSize=4;whiteSpace=wrap;html=1;" vertex="1" collapsed="1" parent="1">
          <mxGeometry x="474" y="820" width="80" height="50" as="geometry">
            <mxRectangle x="480" y="600" width="160" height="120" as="alternateBounds" />
          </mxGeometry>
        </mxCell>
        <mxCell id="gh-8znMGUpCOYyHDODqv-126" value="+Attribute1&#xa;+Attribute2&#xa;+Attribute3" style="align=left;strokeColor=none;fillColor=none;spacingLeft=4;fontSize=12;verticalAlign=top;resizable=0;rotatable=0;part=1;html=1;" vertex="1" parent="gh-8znMGUpCOYyHDODqv-125">
          <mxGeometry y="50" width="160" height="70" as="geometry" />
        </mxCell>
        <mxCell id="gh-8znMGUpCOYyHDODqv-131" style="edgeStyle=orthogonalEdgeStyle;rounded=0;orthogonalLoop=1;jettySize=auto;html=1;entryX=0.5;entryY=1;entryDx=0;entryDy=0;" edge="1" parent="1" source="gh-8znMGUpCOYyHDODqv-129" target="gh-8znMGUpCOYyHDODqv-125">
          <mxGeometry relative="1" as="geometry" />
        </mxCell>
        <mxCell id="gh-8znMGUpCOYyHDODqv-132" value="has_many" style="edgeLabel;html=1;align=center;verticalAlign=middle;resizable=0;points=[];" vertex="1" connectable="0" parent="gh-8znMGUpCOYyHDODqv-131">
          <mxGeometry x="-0.0137" y="-1" relative="1" as="geometry">
            <mxPoint as="offset" />
          </mxGeometry>
        </mxCell>
        <mxCell id="gh-8znMGUpCOYyHDODqv-129" value="Invoice&lt;div&gt;status&lt;/div&gt;" style="swimlane;childLayout=stackLayout;horizontal=1;startSize=50;horizontalStack=0;rounded=1;fontSize=14;fontStyle=0;strokeWidth=2;resizeParent=0;resizeLast=1;shadow=0;dashed=0;align=center;arcSize=4;whiteSpace=wrap;html=1;" vertex="1" collapsed="1" parent="1">
          <mxGeometry x="474" y="940" width="80" height="50" as="geometry">
            <mxRectangle x="690" y="900" width="160" height="120" as="alternateBounds" />
          </mxGeometry>
        </mxCell>
        <mxCell id="gh-8znMGUpCOYyHDODqv-130" value="+Attribute1&#xa;+Attribute2&#xa;+Attribute3" style="align=left;strokeColor=none;fillColor=none;spacingLeft=4;fontSize=12;verticalAlign=top;resizable=0;rotatable=0;part=1;html=1;" vertex="1" parent="gh-8znMGUpCOYyHDODqv-129">
          <mxGeometry y="50" width="160" height="70" as="geometry" />
        </mxCell>
        <mxCell id="gh-8znMGUpCOYyHDODqv-135" style="edgeStyle=orthogonalEdgeStyle;rounded=0;orthogonalLoop=1;jettySize=auto;html=1;entryX=0.5;entryY=1;entryDx=0;entryDy=0;" edge="1" parent="1" source="gh-8znMGUpCOYyHDODqv-133" target="gh-8znMGUpCOYyHDODqv-121">
          <mxGeometry relative="1" as="geometry" />
        </mxCell>
        <mxCell id="gh-8znMGUpCOYyHDODqv-136" value="has_many" style="edgeLabel;html=1;align=center;verticalAlign=middle;resizable=0;points=[];" vertex="1" connectable="0" parent="gh-8znMGUpCOYyHDODqv-135">
          <mxGeometry x="0.1507" relative="1" as="geometry">
            <mxPoint as="offset" />
          </mxGeometry>
        </mxCell>
        <mxCell id="gh-8znMGUpCOYyHDODqv-133" value="Invoice&lt;div&gt;status&lt;/div&gt;" style="swimlane;childLayout=stackLayout;horizontal=1;startSize=50;horizontalStack=0;rounded=1;fontSize=14;fontStyle=0;strokeWidth=2;resizeParent=0;resizeLast=1;shadow=0;dashed=0;align=center;arcSize=4;whiteSpace=wrap;html=1;" vertex="1" collapsed="1" parent="1">
          <mxGeometry x="274" y="930" width="80" height="50" as="geometry">
            <mxRectangle x="690" y="900" width="160" height="120" as="alternateBounds" />
          </mxGeometry>
        </mxCell>
        <mxCell id="gh-8znMGUpCOYyHDODqv-134" value="+Attribute1&#xa;+Attribute2&#xa;+Attribute3" style="align=left;strokeColor=none;fillColor=none;spacingLeft=4;fontSize=12;verticalAlign=top;resizable=0;rotatable=0;part=1;html=1;" vertex="1" parent="gh-8znMGUpCOYyHDODqv-133">
          <mxGeometry y="50" width="160" height="70" as="geometry" />
        </mxCell>
        <mxCell id="gh-8znMGUpCOYyHDODqv-137" value="Ставки" style="text;html=1;align=center;verticalAlign=middle;resizable=0;points=[];autosize=1;strokeColor=none;fillColor=none;" vertex="1" parent="1">
          <mxGeometry x="950" y="730" width="60" height="30" as="geometry" />
        </mxCell>
        <mxCell id="gh-8znMGUpCOYyHDODqv-146" style="edgeStyle=orthogonalEdgeStyle;rounded=0;orthogonalLoop=1;jettySize=auto;html=1;entryX=0;entryY=0.5;entryDx=0;entryDy=0;" edge="1" parent="1" source="gh-8znMGUpCOYyHDODqv-138" target="gh-8znMGUpCOYyHDODqv-143">
          <mxGeometry relative="1" as="geometry" />
        </mxCell>
        <mxCell id="gh-8znMGUpCOYyHDODqv-147" value="has_many" style="edgeLabel;html=1;align=center;verticalAlign=middle;resizable=0;points=[];" vertex="1" connectable="0" parent="gh-8znMGUpCOYyHDODqv-146">
          <mxGeometry x="-0.0829" y="1" relative="1" as="geometry">
            <mxPoint as="offset" />
          </mxGeometry>
        </mxCell>
        <mxCell id="gh-8znMGUpCOYyHDODqv-138" value="Manager" style="swimlane;childLayout=stackLayout;horizontal=1;startSize=50;horizontalStack=0;rounded=1;fontSize=14;fontStyle=0;strokeWidth=2;resizeParent=0;resizeLast=1;shadow=0;dashed=0;align=center;arcSize=4;whiteSpace=wrap;html=1;" vertex="1" collapsed="1" parent="1">
          <mxGeometry x="810" y="790" width="80" height="50" as="geometry">
            <mxRectangle x="470" y="-180" width="160" height="120" as="alternateBounds" />
          </mxGeometry>
        </mxCell>
        <mxCell id="gh-8znMGUpCOYyHDODqv-139" value="+Attribute1&#xa;+Attribute2&#xa;+Attribute3" style="align=left;strokeColor=none;fillColor=none;spacingLeft=4;fontSize=12;verticalAlign=top;resizable=0;rotatable=0;part=1;html=1;" vertex="1" parent="gh-8znMGUpCOYyHDODqv-138">
          <mxGeometry y="50" width="160" height="70" as="geometry" />
        </mxCell>
        <mxCell id="gh-8znMGUpCOYyHDODqv-141" value="Task" style="swimlane;childLayout=stackLayout;horizontal=1;startSize=50;horizontalStack=0;rounded=1;fontSize=14;fontStyle=0;strokeWidth=2;resizeParent=0;resizeLast=1;shadow=0;dashed=0;align=center;arcSize=4;whiteSpace=wrap;html=1;strokeColor=#7EA6E0;" vertex="1" collapsed="1" parent="1">
          <mxGeometry x="1110" y="790" width="80" height="50" as="geometry">
            <mxRectangle x="1345" y="670" width="160" height="120" as="alternateBounds" />
          </mxGeometry>
        </mxCell>
        <mxCell id="gh-8znMGUpCOYyHDODqv-142" value="+Attribute1&#xa;+Attribute2&#xa;+Attribute3" style="align=left;strokeColor=none;fillColor=none;spacingLeft=4;fontSize=12;verticalAlign=top;resizable=0;rotatable=0;part=1;html=1;" vertex="1" parent="gh-8znMGUpCOYyHDODqv-141">
          <mxGeometry y="50" width="160" height="70" as="geometry" />
        </mxCell>
        <mxCell id="gh-8znMGUpCOYyHDODqv-148" style="edgeStyle=orthogonalEdgeStyle;rounded=0;orthogonalLoop=1;jettySize=auto;html=1;entryX=0;entryY=0.5;entryDx=0;entryDy=0;" edge="1" parent="1" source="gh-8znMGUpCOYyHDODqv-143" target="gh-8znMGUpCOYyHDODqv-141">
          <mxGeometry relative="1" as="geometry" />
        </mxCell>
        <mxCell id="gh-8znMGUpCOYyHDODqv-149" value="has_one" style="edgeLabel;html=1;align=center;verticalAlign=middle;resizable=0;points=[];" vertex="1" connectable="0" parent="gh-8znMGUpCOYyHDODqv-148">
          <mxGeometry x="-0.0303" y="2" relative="1" as="geometry">
            <mxPoint as="offset" />
          </mxGeometry>
        </mxCell>
        <mxCell id="gh-8znMGUpCOYyHDODqv-143" value="Bet" style="swimlane;childLayout=stackLayout;horizontal=1;startSize=50;horizontalStack=0;rounded=1;fontSize=14;fontStyle=0;strokeWidth=2;resizeParent=0;resizeLast=1;shadow=0;dashed=0;align=center;arcSize=4;whiteSpace=wrap;html=1;" vertex="1" collapsed="1" parent="1">
          <mxGeometry x="970" y="790" width="60" height="50" as="geometry">
            <mxRectangle x="1040" y="450" width="160" height="120" as="alternateBounds" />
          </mxGeometry>
        </mxCell>
        <mxCell id="gh-8znMGUpCOYyHDODqv-144" value="+Attribute1&#xa;+Attribute2&#xa;+Attribute3" style="align=left;strokeColor=none;fillColor=none;spacingLeft=4;fontSize=12;verticalAlign=top;resizable=0;rotatable=0;part=1;html=1;" vertex="1" parent="gh-8znMGUpCOYyHDODqv-143">
          <mxGeometry y="50" width="160" height="70" as="geometry" />
        </mxCell>
        <mxCell id="gh-8znMGUpCOYyHDODqv-145" style="edgeStyle=orthogonalEdgeStyle;rounded=0;orthogonalLoop=1;jettySize=auto;html=1;dashed=1;dashPattern=12 12;strokeColor=#6c8ebf;strokeWidth=2;align=center;verticalAlign=middle;fontFamily=Helvetica;fontSize=11;fontColor=default;labelBackgroundColor=default;endArrow=classic;fillColor=#dae8fc;exitX=1;exitY=0.75;exitDx=0;exitDy=0;" edge="1" parent="1" source="gh-8znMGUpCOYyHDODqv-40" target="gh-8znMGUpCOYyHDODqv-141">
          <mxGeometry relative="1" as="geometry" />
        </mxCell>
      </root>
    </mxGraphModel>
  </diagram>
</mxfile>
